# xmcd
#
# Track frame offsets: 
#        150
#        25542
#        49876
#        83490
#        108148
#        130659
#        146248
#        180460
#        208977
#        261693
#        281195
#        312129
#
# Disc length: 4539 seconds
#
# Revision: 0
# Processed by: cddbd v1.5.2PL0 Copyright (c) Steve Scherf et al.
# Submitted via: ExactAudioCopy v1.3
#
DISCID=ad11b90c
DTITLE=Mick Abrahams Band - Live in Forli
DYEAR=2014
DGENRE=Blues
TTITLE0=You Got It Wrong
TTITLE1=Lies
TTITLE2=Going Down Slow
TTITLE3=Jesus On The Mainline
TTITLE4=Billy The Kid
TTITLE5=Trouble In Mind
TTITLE6=Wonder Who
TTITLE7=The Victim
TTITLE8=Cats Squirrel
TTITLE9=How Can A Poor Man
TTITLE10=Dead Mans Hill
TTITLE11=Rock Me Baby
EXTD=
EXTT0=
EXTT1=
EXTT2=
EXTT3=
EXTT4=
EXTT5=
EXTT6=
EXTT7=
EXTT8=
EXTT9=
EXTT10=
EXTT11=
PLAYORDER=
